<?xml version="1.0" standalone="no"?>
<!DOCTYPE svg PUBLIC "-//W3C//DTD SVG 20010904//EN"
 "http://www.w3.org/TR/2001/REC-SVG-20010904/DTD/svg10.dtd">
<svg version="1.0" xmlns="http://www.w3.org/2000/svg"
 width="512.000000pt" height="512.000000pt" viewBox="0 0 512.000000 512.000000"
 preserveAspectRatio="xMidYMid meet">

<g transform="translate(0.000000,512.000000) scale(0.100000,-0.100000)"
fill="#8c52ff" stroke="none">
<path d="M4209 4690 c-112 -19 -115 -22 -609 -522 l-464 -470 -76 6 c-108 10
-218 34 -270 59 -57 28 -156 127 -197 197 -62 106 -79 242 -39 318 22 43 20
104 -4 134 -33 42 -72 53 -146 39 -196 -36 -498 -146 -739 -270 -379 -194
-578 -377 -715 -656 -67 -137 -106 -255 -123 -367 l-11 -78 -68 0 c-135 0
-156 -24 -202 -230 -113 -513 1 -1024 324 -1450 286 -376 736 -648 1215 -734
77 -14 69 -14 -246 -15 -322 -1 -326 -1 -360 -24 -48 -32 -67 -89 -46 -139 8
-20 28 -45 43 -55 27 -17 77 -18 949 -21 506 -2 940 0 964 3 90 13 136 97 96
175 -30 58 -43 60 -397 61 l-323 0 112 24 c774 164 1366 741 1515 1476 20 98
23 144 23 329 0 225 -10 302 -57 468 -24 83 -67 132 -117 132 -27 0 -30 3 -36
52 -21 149 -99 271 -240 375 l-30 21 312 314 c306 308 341 350 358 428 54 247
-149 462 -396 420z m116 -245 c52 -26 71 -95 41 -153 -8 -15 -160 -172 -338
-350 l-324 -323 -64 15 c-36 8 -95 18 -132 22 -38 4 -68 9 -68 12 0 12 746
758 774 775 38 21 68 22 111 2z m-2001 -392 c15 -116 115 -285 230 -390 146
-133 223 -154 828 -218 172 -18 318 -52 405 -95 83 -41 157 -123 179 -196 9
-31 14 -57 12 -59 -1 -2 -323 -6 -713 -10 l-711 -8 -13 29 c-28 64 -99 138
-224 236 -231 182 -277 235 -277 326 0 53 31 134 79 210 42 64 177 222 190
222 5 0 11 -21 15 -47z m-389 -44 c-91 -138 -130 -258 -123 -381 9 -152 92
-262 336 -446 67 -51 122 -95 122 -98 0 -2 -273 -4 -606 -4 l-607 0 7 57 c15
129 107 341 201 463 82 107 229 223 419 332 90 52 277 140 283 134 2 -2 -12
-28 -32 -57z m2228 -1254 c26 -127 28 -403 3 -540 -117 -651 -638 -1164 -1330
-1311 -147 -31 -454 -44 -601 -25 -512 67 -971 344 -1242 751 -110 165 -195
372 -235 573 -28 145 -31 395 -4 532 9 50 19 96 21 103 4 10 346 12 1687 10
l1683 -3 18 -90z"/>
</g>
</svg>
