<?xml version="1.0" standalone="no"?>
<!DOCTYPE svg PUBLIC "-//W3C//DTD SVG 20010904//EN"
 "http://www.w3.org/TR/2001/REC-SVG-20010904/DTD/svg10.dtd">
<svg version="1.0" xmlns="http://www.w3.org/2000/svg"
 width="512.000000pt" height="512.000000pt" viewBox="0 0 512.000000 512.000000"
 preserveAspectRatio="xMidYMid meet">

<g transform="translate(0.000000,512.000000) scale(0.100000,-0.100000)"
fill="#8c52ff" stroke="none">
<path d="M2370 5114 c-243 -18 -541 -89 -775 -184 -219 -89 -492 -254 -662
-400 -74 -63 -83 -74 -83 -105 0 -38 37 -75 74 -75 12 0 59 31 106 68 375 300
753 465 1225 533 138 20 493 17 640 -5 66 -10 124 -22 128 -26 5 -4 -4 -27
-19 -51 -68 -107 -136 -279 -170 -429 -25 -108 -30 -368 -10 -491 61 -370 272
-701 580 -908 131 -89 297 -162 443 -196 37 -9 77 -22 89 -30 12 -7 36 -50 54
-95 107 -266 324 -456 599 -527 77 -19 121 -24 224 -24 126 0 127 0 122 -22
-2 -12 -16 -71 -30 -132 -82 -355 -241 -680 -475 -972 -39 -48 -73 -98 -77
-111 -9 -36 26 -76 68 -79 39 -3 48 3 110 77 276 331 474 759 549 1186 12 67
11 75 -9 116 -36 75 -71 88 -237 88 -108 -1 -155 4 -209 19 -143 40 -236 94
-334 192 -72 73 -116 141 -166 260 -57 132 -86 156 -246 199 -378 103 -663
341 -816 681 -67 149 -94 267 -100 442 -10 258 35 441 166 672 60 106 67 159
28 215 -35 53 -72 68 -218 90 -131 20 -443 33 -569 24z"/>
<path d="M4035 4744 c-11 -3 -90 -26 -175 -50 -210 -62 -270 -103 -320 -217
-25 -59 -54 -240 -46 -295 14 -100 81 -199 167 -242 22 -12 88 -39 147 -61
184 -70 306 -62 408 25 61 52 89 116 139 317 36 143 45 196 41 237 -10 109
-83 212 -181 258 -50 23 -142 37 -180 28z m110 -163 c54 -25 81 -57 95 -111
11 -41 8 -60 -33 -222 -48 -189 -66 -226 -121 -252 -55 -26 -105 -20 -238 30
-189 70 -221 113 -198 266 18 120 47 179 103 209 19 11 223 74 284 88 55 13
64 12 108 -8z"/>
<path d="M2042 4304 c-56 -39 -45 -89 33 -163 39 -37 62 -51 83 -51 40 0 72
33 72 74 0 27 -11 43 -64 94 -68 65 -87 72 -124 46z"/>
<path d="M634 4238 c-147 -160 -303 -402 -407 -633 -258 -573 -296 -1225 -107
-1820 121 -380 322 -713 605 -1004 411 -422 890 -666 1485 -757 165 -25 519
-25 695 0 157 22 394 81 530 130 149 55 405 185 535 272 113 75 262 191 288
223 21 26 11 81 -20 104 -37 28 -61 19 -164 -64 -417 -335 -891 -511 -1434
-535 -493 -21 -1011 127 -1427 408 -202 136 -432 354 -580 552 -406 541 -567
1237 -438 1900 73 379 239 733 497 1061 43 55 78 109 78 121 0 12 -9 33 -21
48 -30 38 -76 36 -115 -6z"/>
<path d="M4816 4228 c-54 -15 -141 -101 -155 -153 -17 -62 -13 -115 13 -170
59 -127 213 -173 333 -99 121 75 147 237 56 344 -62 72 -158 103 -247 78z
m132 -174 c70 -79 -47 -182 -122 -108 -30 31 -34 69 -10 102 33 48 92 50 132
6z"/>
<path d="M2460 3833 c-8 -3 -41 -31 -72 -61 -47 -46 -58 -62 -58 -89 0 -42 30
-73 72 -73 25 0 43 12 90 58 49 49 58 64 58 94 0 48 -48 86 -90 71z"/>
<path d="M1372 3750 c-115 -17 -234 -106 -286 -213 -97 -197 -16 -432 182
-529 109 -54 265 -49 362 11 90 55 152 132 183 225 21 61 22 165 2 230 -57
189 -244 305 -443 276z m164 -165 c130 -54 184 -228 108 -351 -81 -132 -262
-154 -374 -46 -194 188 15 500 266 397z"/>
<path d="M4368 3587 c-139 -59 -197 -115 -217 -208 -14 -64 -4 -109 56 -246
57 -133 102 -184 184 -207 68 -20 146 -8 194 29 35 26 120 121 178 197 76 101
69 226 -16 311 -23 23 -75 64 -115 91 -66 44 -81 49 -140 53 -54 3 -78 -1
-124 -20z m183 -158 c105 -75 128 -110 105 -162 -22 -50 -151 -194 -181 -201
-60 -15 -87 18 -154 186 -41 102 -34 123 57 172 84 44 116 45 173 5z"/>
<path d="M2433 3189 c-55 -10 -115 -51 -149 -102 -23 -34 -29 -56 -32 -112 -3
-62 0 -76 25 -125 38 -72 100 -112 184 -118 142 -10 248 89 249 232 0 146
-131 253 -277 225z m105 -172 c51 -47 14 -137 -57 -137 -95 0 -112 130 -21
163 22 8 52 -2 78 -26z"/>
<path d="M821 2684 c-12 -15 -21 -33 -21 -41 0 -17 87 -192 108 -215 36 -42
122 -8 122 47 0 28 -79 193 -105 219 -26 26 -80 21 -104 -10z"/>
<path d="M1865 2450 c-35 -38 -24 -75 41 -141 48 -48 64 -59 91 -59 42 0 73
30 73 72 0 25 -12 43 -58 90 -49 49 -64 58 -94 58 -22 0 -41 -7 -53 -20z"/>
<path d="M3160 2425 c-92 -49 -110 -65 -110 -105 0 -42 26 -70 66 -70 37 0
200 76 224 105 19 23 17 71 -5 95 -29 32 -79 25 -175 -25z"/>
<path d="M1497 2056 c-196 -70 -276 -318 -154 -478 99 -129 252 -168 392 -99
118 58 180 164 173 296 -9 170 -142 296 -311 295 -34 -1 -79 -7 -100 -14z
m184 -159 c74 -50 100 -136 63 -213 -47 -99 -181 -119 -260 -40 -60 60 -66
152 -14 218 46 59 150 76 211 35z"/>
<path d="M3872 2050 c-32 -30 -27 -59 28 -171 37 -73 57 -102 76 -109 33 -13
73 5 93 41 14 25 12 32 -33 125 -26 55 -55 107 -63 117 -22 23 -74 22 -101 -3z"/>
<path d="M2999 1892 c-103 -38 -171 -95 -222 -184 -36 -64 -50 -127 -45 -215
5 -102 40 -181 111 -251 161 -156 399 -157 556 -1 209 210 119 568 -165 654
-64 19 -177 18 -235 -3z m226 -156 c88 -40 138 -119 138 -216 0 -165 -152
-281 -308 -235 -106 30 -175 121 -175 228 0 185 179 301 345 223z"/>
<path d="M2039 1140 c-78 -39 -99 -55 -107 -78 -13 -36 2 -70 40 -91 24 -14
31 -12 124 33 55 26 107 55 117 63 23 22 22 78 -3 103 -30 30 -65 24 -171 -30z"/>
<path d="M2832 770 c-19 -18 -22 -32 -22 -95 0 -68 2 -75 26 -94 34 -27 57
-26 89 2 44 38 46 146 4 188 -25 25 -69 24 -97 -1z"/>
</g>
</svg>
