<?xml version="1.0" standalone="no"?>
<!DOCTYPE svg PUBLIC "-//W3C//DTD SVG 20010904//EN"
 "http://www.w3.org/TR/2001/REC-SVG-20010904/DTD/svg10.dtd">
<svg version="1.0" xmlns="http://www.w3.org/2000/svg"
 width="512.000000pt" height="512.000000pt" viewBox="0 0 512.000000 512.000000"
 preserveAspectRatio="xMidYMid meet">

<g transform="translate(0.000000,512.000000) scale(0.100000,-0.100000)"
fill="#8c52ff" stroke="none">
<path d="M2495 4954 c-96 -15 -200 -40 -275 -66 -368 -129 -654 -414 -785
-781 -31 -87 -35 -94 -82 -122 -318 -194 -532 -493 -609 -855 -26 -121 -26
-371 0 -498 21 -106 8 -99 124 -65 41 11 52 19 48 30 -4 9 -13 57 -21 107 -48
297 30 610 216 856 287 380 797 534 1254 377 68 -24 177 -74 223 -105 23 -15
22 -16 -55 -56 -127 -67 -202 -123 -314 -235 -188 -189 -301 -395 -354 -651
-20 -93 -26 -318 -12 -427 l8 -63 -507 0 c-369 0 -518 -3 -548 -12 -86 -26
-166 -136 -166 -228 0 -117 116 -240 228 -240 15 0 21 -8 26 -32 8 -47 226
-1652 226 -1667 0 -6 11 -23 25 -36 l24 -25 1391 0 1391 0 24 25 c14 13 25 30
25 36 0 15 218 1620 226 1667 5 24 11 32 26 32 51 0 105 26 153 75 98 97 101
222 9 324 l-42 47 14 95 c28 187 10 388 -51 574 -40 122 -84 213 -159 325 -31
46 -55 87 -54 91 2 5 174 211 383 458 442 524 450 536 450 675 0 81 -4 98 -31
156 -103 217 -383 289 -579 148 -62 -44 -83 -74 -335 -481 -91 -146 -167 -266
-170 -267 -3 0 -21 35 -40 78 -88 196 -263 400 -455 529 -123 83 -278 148
-435 184 -83 19 -346 33 -415 23z m320 -169 c412 -67 751 -353 886 -749 l26
-80 -44 -71 -44 -72 -112 38 c-205 70 -447 86 -654 45 l-73 -15 -77 53 c-319
219 -718 281 -1101 170 -23 -7 -22 -4 13 67 74 147 175 275 292 372 253 206
572 294 888 242z m1839 4 c22 -6 56 -28 80 -52 67 -68 84 -158 43 -238 -20
-39 -761 -929 -773 -929 -3 0 -31 22 -62 48 -31 27 -79 64 -107 82 -27 18 -51
34 -53 35 -1 1 135 222 303 491 306 490 345 545 409 563 43 13 114 13 160 0z
m-1361 -1044 c305 -46 600 -236 764 -493 88 -137 152 -313 174 -479 12 -87 7
-261 -9 -333 l-8 -35 -208 -5 c-204 -5 -208 -5 -227 -29 -17 -21 -19 -42 -19
-251 l0 -227 -26 -27 c-32 -31 -72 -34 -105 -7 -23 18 -24 25 -29 193 -6 189
-15 221 -77 280 -97 92 -232 90 -328 -7 -59 -58 -75 -102 -75 -202 0 -63 -3
-73 -26 -97 -34 -34 -77 -34 -109 -1 -24 23 -25 28 -25 175 0 147 -1 152 -25
175 l-24 25 -444 0 -444 0 -12 88 c-31 242 8 457 121 674 221 422 684 655
1161 583z m-493 -1585 l0 -80 -975 0 -976 0 -24 25 c-16 15 -25 36 -25 55 0
19 9 40 25 55 l24 25 976 0 975 0 0 -80z m615 55 c24 -23 25 -28 25 -176 0
-186 8 -218 75 -284 73 -74 151 -92 248 -59 77 26 157 132 157 208 0 13 12 16
75 16 l75 0 -5 -27 c-3 -16 -50 -361 -105 -768 -56 -407 -103 -755 -106 -772
l-6 -33 -1288 0 -1288 0 -6 33 c-3 17 -50 365 -106 772 -55 407 -102 752 -105
768 l-5 27 909 0 c834 0 910 -1 922 -17 22 -26 111 -63 153 -63 69 0 118 21
171 75 59 59 75 102 75 204 0 63 3 75 25 96 15 16 36 25 55 25 19 0 40 -9 55
-25z m880 0 c16 -15 25 -36 25 -55 0 -19 -9 -40 -25 -55 -24 -25 -27 -25 -200
-25 l-175 0 0 80 0 80 175 0 c173 0 176 0 200 -25z"/>
<path d="M2480 4560 l0 -80 80 0 80 0 0 80 0 80 -80 0 -80 0 0 -80z"/>
<path d="M2960 4240 l0 -80 80 0 80 0 0 80 0 80 -80 0 -80 0 0 -80z"/>
<path d="M2880 3360 l0 -80 80 0 80 0 0 80 0 80 -80 0 -80 0 0 -80z"/>
<path d="M3360 3184 c0 -128 13 -168 75 -229 102 -103 243 -101 338 5 54 60
67 103 67 224 l0 96 -80 0 -80 0 0 -95 c0 -88 -2 -98 -25 -120 -15 -16 -36
-25 -55 -25 -19 0 -40 9 -55 25 -23 22 -25 32 -25 120 l0 95 -80 0 -80 0 0
-96z"/>
<path d="M2480 3040 l0 -80 80 0 80 0 0 80 0 80 -80 0 -80 0 0 -80z"/>
<path d="M1311 1679 c-30 -5 -57 -11 -59 -14 -5 -5 16 -156 22 -163 4 -4 146
15 151 20 2 2 -2 40 -8 86 -12 92 -5 87 -106 71z"/>
<path d="M2800 1344 c0 -128 13 -168 75 -229 102 -103 243 -101 338 5 54 60
67 103 67 224 l0 96 -80 0 -80 0 0 -95 c0 -88 -2 -98 -25 -120 -32 -33 -78
-33 -110 0 -23 22 -25 32 -25 120 l0 95 -80 0 -80 0 0 -96z"/>
<path d="M1357 1330 c-27 -5 -52 -11 -55 -14 -6 -7 94 -755 102 -763 4 -4 147
15 152 20 1 1 -21 173 -50 382 l-51 380 -25 2 c-14 0 -47 -3 -73 -7z"/>
<path d="M1760 3600 l0 -80 80 0 80 0 0 80 0 80 -80 0 -80 0 0 -80z"/>
<path d="M1120 3104 c0 -128 13 -168 75 -229 102 -103 243 -101 338 5 54 60
67 103 67 224 l0 96 -80 0 -80 0 0 -95 c0 -88 -2 -98 -25 -120 -15 -16 -36
-25 -55 -25 -19 0 -40 9 -55 25 -23 22 -25 32 -25 120 l0 95 -80 0 -80 0 0
-96z"/>
</g>
</svg>
