<?xml version="1.0" standalone="no"?>
<!DOCTYPE svg PUBLIC "-//W3C//DTD SVG 20010904//EN"
 "http://www.w3.org/TR/2001/REC-SVG-20010904/DTD/svg10.dtd">
<svg version="1.0" xmlns="http://www.w3.org/2000/svg"
 width="512.000000pt" height="512.000000pt" viewBox="0 0 512.000000 512.000000"
 preserveAspectRatio="xMidYMid meet">

<g transform="translate(0.000000,512.000000) scale(0.100000,-0.100000)"
fill="#8c52ff" stroke="none">
<path d="M2336 5054 c-246 -44 -465 -161 -652 -348 -191 -190 -306 -414 -349
-679 -22 -135 -23 -2723 -1 -2753 14 -18 32 -19 435 -22 l421 -3 0 -408 c0
-234 4 -431 10 -462 24 -125 111 -237 229 -293 61 -29 74 -31 176 -31 100 0
115 2 167 28 88 43 152 107 195 195 l38 76 3 448 3 448 365 0 c362 0 395 3
416 34 12 18 10 2599 -2 2696 -67 540 -484 982 -1014 1075 -110 19 -332 18
-440 -1z m495 -127 c296 -77 540 -260 696 -522 67 -112 106 -214 132 -342 20
-97 21 -134 21 -841 l0 -740 -26 -5 c-66 -12 -151 45 -214 144 -18 27 -58 119
-90 204 -107 284 -204 452 -299 515 -219 148 -393 -146 -456 -774 -28 -271
-67 -434 -137 -568 -88 -170 -168 -181 -271 -36 -61 86 -93 152 -199 411 -150
369 -220 495 -308 553 -56 37 -124 43 -178 15 -22 -11 -43 -25 -47 -31 -22
-35 -25 25 -25 470 0 513 6 620 46 759 30 108 118 286 183 372 175 230 448
393 737 439 106 16 327 5 435 -23z m200 -1725 c59 -64 145 -233 213 -419 56
-150 87 -213 137 -276 76 -96 166 -147 261 -147 l38 0 0 -495 0 -495 -1125 0
-1125 0 0 663 0 663 28 45 c31 48 95 109 115 109 28 0 76 -41 111 -95 48 -72
103 -190 201 -430 99 -244 154 -356 218 -441 123 -163 248 -185 367 -64 122
123 200 359 235 711 44 447 153 759 256 732 10 -3 42 -30 70 -61z m-133 -2384
l-3 -433 -28 -57 c-30 -62 -74 -105 -140 -140 -60 -32 -183 -32 -248 0 -63 31
-117 85 -145 146 l-24 51 0 433 0 432 295 0 296 0 -3 -432z"/>
<path d="M2514 4745 c-16 -25 -16 -30 -3 -54 13 -23 22 -27 94 -33 169 -16
296 -58 422 -140 227 -148 365 -384 389 -666 6 -71 10 -86 29 -98 31 -20 72
-4 81 32 10 39 -3 164 -27 257 -102 401 -461 700 -870 724 l-97 6 -18 -28z"/>
</g>
</svg>
